<?xml version="1.0" standalone="no"?>
<!DOCTYPE svg PUBLIC "-//W3C//DTD SVG 20010904//EN"
 "http://www.w3.org/TR/2001/REC-SVG-20010904/DTD/svg10.dtd">
<svg version="1.0" xmlns="http://www.w3.org/2000/svg"
 width="1024.000000pt" height="1024.000000pt" viewBox="0 0 1024.000000 1024.000000"
 preserveAspectRatio="xMidYMid meet">
<metadata>
Created by potrace 1.14, written by Peter Selinger 2001-2017
</metadata>
<g transform="translate(0.000000,1024.000000) scale(0.100000,-0.100000)"
fill="#000000" stroke="none">
<path d="M2670 7773 c-96 -33 -173 -112 -205 -209 -14 -43 -16 -89 -13 -300 3
-228 5 -253 24 -295 26 -56 76 -114 126 -145 78 -50 125 -54 509 -52 l354 3 3
354 c2 384 -2 430 -52 509 -35 55 -101 109 -163 132 -49 18 -77 20 -296 20
-193 -1 -251 -4 -287 -17z m552 -168 c23 -17 53 -49 65 -70 22 -39 23 -48 23
-322 l0 -283 -282 0 c-275 0 -284 1 -323 23 -21 12 -53 42 -70 65 l-30 44 -3
192 c-4 222 3 261 56 318 59 62 88 68 319 65 l201 -2 44 -30z"/>
<path d="M2779 7461 l-39 -39 0 -141 0 -141 34 -38 34 -37 127 -3 c140 -4 166
2 211 49 l29 30 0 145 0 146 -37 34 -38 34 -141 0 -141 0 -39 -39z"/>
<path d="M3625 7765 c-25 -24 -25 -27 -25 -193 0 -156 2 -171 21 -196 17 -22
28 -26 70 -26 l49 0 0 -104 c0 -157 16 -186 104 -186 l46 0 0 -140 0 -140 -64
0 -64 0 -4 126 c-3 118 -4 127 -27 145 -32 26 -77 24 -106 -6 l-25 -24 0 -248
0 -248 66 62 c82 80 193 155 301 204 l83 39 0 40 c0 39 1 40 36 40 90 0 136
79 79 135 -18 19 -35 25 -68 25 l-44 0 -5 51 c-7 66 -29 88 -96 96 l-52 6 0
63 0 64 65 0 65 0 0 -46 c0 -37 5 -51 29 -75 24 -24 38 -29 75 -29 l46 0 0
-48 c0 -65 27 -92 93 -92 l47 0 0 -44 c0 -59 33 -99 80 -99 47 0 80 40 80 99
l0 44 65 0 65 0 0 -47 c1 -70 34 -103 104 -103 34 0 36 -2 36 -34 0 -52 8 -64
57 -86 49 -21 74 -16 93 20 5 10 10 62 10 115 0 89 -2 98 -25 120 -18 19 -35
25 -68 25 l-44 0 -5 51 c-7 66 -29 88 -96 96 l-52 6 0 44 c0 61 -32 93 -95 93
l-45 0 0 65 0 65 65 0 65 0 0 -44 c0 -66 28 -96 91 -96 l49 0 0 -46 c0 -37 5
-51 30 -76 26 -25 36 -29 63 -24 46 9 67 39 67 97 l0 49 65 0 65 0 0 -120 c0
-115 1 -122 25 -145 55 -56 135 -15 135 70 l0 45 65 0 65 0 0 -44 c0 -58 29
-96 75 -96 51 0 77 27 82 87 l5 51 51 5 c37 3 56 11 69 27 26 32 23 76 -7 105
-23 24 -30 25 -145 25 l-120 0 0 65 0 65 48 0 c72 0 114 47 93 103 -18 48 -50
59 -155 55 -115 -4 -133 -16 -143 -96 l-6 -52 -57 0 -57 0 -6 52 c-12 96 0 93
-363 96 l-315 3 -29 -30 c-30 -29 -30 -30 -30 -145 l0 -116 -65 0 -65 0 0 44
c0 29 -7 52 -21 70 l-20 26 -195 0 -194 0 0 65 0 65 35 0 c42 0 90 22 99 45
14 37 6 74 -20 94 -23 18 -41 21 -126 21 -92 0 -101 -2 -123 -25z"/>
<path d="M4206 7769 c-43 -33 -35 -99 15 -125 78 -40 150 64 86 124 -29 28
-67 28 -101 1z"/>
<path d="M5509 7777 c-58 -44 -40 -124 32 -142 37 -9 89 36 89 76 0 59 -76
100 -121 66z"/>
<path d="M6075 7765 c-36 -35 -33 -76 7 -110 23 -20 38 -25 57 -20 57 14 82
65 57 114 -25 48 -82 56 -121 16z"/>
<path d="M6975 7765 c-79 -32 -154 -109 -183 -188 -21 -55 -22 -74 -22 -387
l0 -328 38 -13 c20 -6 68 -27 106 -46 l69 -35 276 4 c274 3 276 3 332 29 72
34 134 96 168 168 25 55 26 61 29 289 3 216 2 238 -18 304 -18 60 -30 80 -78
128 -93 93 -123 100 -415 100 -234 0 -244 -1 -302 -25z m567 -160 c23 -17 53
-49 66 -70 22 -39 22 -47 20 -261 -3 -215 -4 -221 -27 -256 -13 -19 -40 -46
-59 -59 -35 -24 -38 -24 -329 -27 l-293 -3 0 263 c0 157 4 279 11 302 6 21 27
56 47 78 59 62 88 68 319 65 l201 -2 44 -30z"/>
<path d="M7099 7461 l-39 -39 0 -133 c0 -145 6 -168 53 -203 26 -19 42 -21
168 -21 l139 0 37 38 38 37 3 129 c3 107 0 136 -14 166 -27 57 -54 65 -210 65
l-136 0 -39 -39z"/>
<path d="M6509 7621 c-33 -33 -35 -50 -14 -90 34 -67 127 -50 141 26 5 27 1
37 -24 63 -38 38 -66 38 -103 1z"/>
<path d="M6362 7477 c-59 -63 11 -152 93 -121 27 11 45 62 33 96 -18 52 -88
66 -126 25z"/>
<path d="M5803 7348 c-12 -6 -27 -24 -34 -41 -15 -36 1 -73 44 -97 24 -13 30
-13 54 0 43 24 59 61 44 97 -12 29 -47 54 -74 52 -7 0 -22 -5 -34 -11z"/>
<path d="M6075 7335 c-24 -24 -31 -57 -19 -90 7 -18 55 -45 79 -45 24 0 75 55
75 80 0 30 -53 80 -85 80 -14 0 -37 -11 -50 -25z"/>
<path d="M6255 7213 c-29 -7 -52 -31 -59 -59 -7 -28 16 -79 39 -88 9 -3 68 -6
131 -6 l114 0 0 -96 0 -96 31 6 c17 3 53 6 80 6 l49 0 0 139 c0 133 -1 141
-24 168 l-24 28 -159 2 c-87 1 -167 -1 -178 -4z"/>
<path d="M5509 7057 c-58 -44 -40 -124 32 -142 37 -9 89 36 89 76 0 59 -76
100 -121 66z"/>
<path d="M4223 6920 c-20 -8 -49 -47 -41 -55 2 -2 37 1 77 7 70 10 72 11 54
29 -23 22 -62 31 -90 19z"/>
<path d="M4515 6921 c-19 -8 -53 -40 -44 -41 2 -1 37 -7 77 -14 78 -13 88 -7
55 32 -21 25 -60 35 -88 23z"/>
<path d="M5069 6901 c-29 -29 -29 -31 -29 -140 l0 -111 74 -74 c40 -41 98
-110 127 -155 l54 -81 147 0 c196 0 188 -10 188 220 0 154 -2 169 -21 194 -17
22 -28 26 -70 26 l-49 0 0 34 c0 100 -78 148 -140 86 -15 -15 -20 -34 -20 -70
l0 -50 -65 0 -65 0 0 46 c0 37 -5 51 -29 75 -16 16 -39 29 -51 29 -12 0 -35
-13 -51 -29z m401 -336 l0 -65 -135 0 -135 0 0 65 0 65 135 0 135 0 0 -65z"/>
<path d="M5663 6920 c-47 -19 -57 -87 -18 -125 30 -31 66 -32 101 -2 66 57 -2
160 -83 127z"/>
<path d="M5955 6921 c-35 -15 -47 -38 -52 -100 -12 -127 16 -191 82 -191 63 0
75 24 75 144 0 84 -3 108 -17 124 -21 25 -60 35 -88 23z"/>
<path d="M6240 6917 c-14 -7 -31 -26 -39 -42 -12 -25 -12 -32 0 -53 26 -45 43
-49 96 -20 26 15 50 34 51 44 6 24 -16 60 -45 73 -30 14 -32 14 -63 -2z"/>
<path d="M4280 6760 c-202 -25 -395 -118 -537 -257 -113 -112 -194 -249 -245
-414 -22 -74 -22 -77 -26 -825 l-3 -751 -57 -26 c-221 -102 -348 -351 -298
-585 53 -251 267 -425 521 -425 143 0 260 48 366 150 110 106 160 223 160 378
0 101 -17 170 -63 257 -43 81 -137 172 -219 211 l-68 32 0 715 c-1 795 -3 772
66 902 65 125 190 229 333 279 52 18 87 22 175 22 88 0 123 -4 175 -22 175
-61 311 -195 374 -370 20 -54 21 -81 27 -906 6 -923 4 -892 63 -1050 109 -287
367 -507 669 -569 98 -21 276 -21 374 0 332 68 592 310 695 647 22 71 22 84
28 827 l5 755 65 35 c169 91 273 269 273 465 0 143 -53 272 -154 373 -103 103
-224 152 -374 152 -155 0 -258 -43 -371 -155 -118 -117 -161 -230 -152 -405 8
-143 58 -252 165 -355 46 -43 169 -115 200 -115 12 0 13 -105 11 -717 -3 -660
-5 -722 -22 -773 -90 -277 -355 -448 -633 -409 -220 31 -386 167 -472 388
l-26 66 -5 855 c-6 845 -6 856 -28 935 -95 343 -364 599 -701 670 -90 19 -213
25 -291 15z"/>
<path d="M2766 6619 c-22 -17 -26 -29 -26 -68 l0 -48 -52 -6 c-65 -8 -92 -33
-92 -83 0 -26 7 -42 23 -55 21 -17 42 -19 198 -19 171 0 174 0 198 25 19 18
25 35 25 70 l0 45 45 0 c57 0 95 32 95 80 0 19 -9 40 -25 55 -24 25 -27 25
-193 25 -156 0 -171 -2 -196 -21z"/>
<path d="M3340 6612 c-38 -38 -38 -66 -1 -103 33 -33 50 -35 90 -14 67 34 50
127 -26 141 -27 5 -37 1 -63 -24z"/>
<path d="M7376 6619 c-22 -17 -26 -28 -26 -70 l0 -49 -75 0 c-41 0 -75 -2 -75
-3 0 -2 9 -30 21 -63 25 -71 36 -234 21 -314 -11 -61 -6 -70 41 -70 16 0 38
10 52 25 24 23 25 30 25 145 l0 120 48 0 c65 0 92 27 92 93 l0 47 65 0 65 0 0
-35 c0 -42 22 -90 45 -99 37 -14 74 -6 94 20 18 23 21 41 21 126 0 92 -2 101
-25 123 -24 25 -27 25 -193 25 -156 0 -171 -2 -196 -21z"/>
<path d="M3504 6486 c-17 -8 -34 -21 -38 -31 -10 -28 -7 -72 8 -84 12 -10 38
20 99 116 11 17 -28 16 -69 -1z"/>
<path d="M5814 6490 c-28 -11 -54 -48 -54 -78 0 -33 43 -72 80 -72 38 0 80 39
80 74 0 29 -36 72 -65 79 -11 3 -30 2 -41 -3z"/>
<path d="M2475 6325 c-27 -26 -32 -70 -12 -96 44 -58 124 -40 142 32 5 19 0
34 -20 57 -34 40 -75 43 -110 7z"/>
<path d="M3195 6325 c-19 -18 -25 -35 -25 -70 l0 -45 -116 0 c-114 0 -116 0
-145 -29 -28 -28 -29 -33 -29 -125 0 -86 2 -98 24 -123 24 -27 27 -28 145 -32
l121 -3 0 -59 0 -59 -32 0 c-47 0 -101 -30 -108 -60 -8 -32 7 -78 30 -90 10
-6 80 -10 154 -10 l136 0 0 80 c0 47 -4 80 -10 80 -16 0 -12 111 4 124 8 6 17
41 21 84 6 68 5 72 -14 72 -19 0 -21 6 -21 64 l0 65 41 3 c40 3 42 5 65 63
l25 60 -22 18 c-17 14 -41 17 -121 17 -92 0 -101 -2 -123 -25z"/>
<path d="M5646 6329 c-25 -20 -26 -24 -26 -129 0 -105 1 -109 26 -129 35 -28
67 -26 101 3 27 24 28 27 28 124 0 92 -2 102 -24 126 -30 32 -69 34 -105 5z"/>
<path d="M5929 6324 c-22 -24 -24 -34 -24 -126 0 -97 1 -100 28 -124 48 -41
56 -33 39 44 -9 42 -12 98 -9 150 3 45 2 82 -2 82 -4 0 -18 -12 -32 -26z"/>
<path d="M7515 6325 c-23 -22 -25 -31 -25 -125 0 -94 2 -103 25 -125 24 -24
57 -31 90 -19 30 12 45 60 45 144 0 84 -15 132 -45 144 -33 12 -66 5 -90 -19z"/>
<path d="M4466 6287 c-3 -12 -6 -34 -6 -49 l0 -28 -135 0 -135 0 0 30 0 31
-32 -17 c-56 -29 -188 -168 -188 -198 0 -3 47 -6 105 -6 l105 0 0 -50 c0 -64
21 -87 90 -96 l50 -7 0 -58 c0 -58 0 -59 -29 -59 -41 0 -90 -19 -101 -40 -33
-62 8 -120 83 -120 l47 0 0 -46 c0 -37 5 -51 29 -75 16 -16 39 -29 51 -29 12
0 35 13 51 29 l29 29 0 261 0 261 65 0 65 0 0 -119 c0 -133 9 -156 67 -167 27
-5 37 -1 63 24 24 24 30 39 30 71 0 40 0 41 36 41 l37 0 -6 40 c-14 105 -129
270 -188 270 -22 0 -29 5 -29 20 0 22 -19 34 -95 60 l-53 18 -6 -21z"/>
<path d="M2471 6034 c-46 -58 -12 -119 71 -130 l46 -6 4 -120 c4 -156 6 -158
152 -158 89 0 105 3 124 20 23 22 29 68 12 100 -11 21 -60 40 -101 40 l-29 0
0 114 c0 99 -3 117 -21 140 -20 25 -24 26 -129 26 -105 0 -109 -1 -129 -26z"/>
<path d="M7370 6040 c-15 -15 -20 -33 -20 -70 l0 -50 -88 0 -87 0 -49 -67
c-45 -62 -47 -68 -30 -80 10 -7 37 -13 61 -13 l43 0 0 -65 0 -65 -145 0 -145
0 0 -116 c0 -175 8 -183 173 -184 l117 0 0 -44 c0 -61 29 -96 80 -96 30 0 43
6 59 26 18 23 21 41 21 139 l0 112 52 5 c88 9 88 8 88 297 0 246 0 248 -23
269 -30 28 -80 29 -107 2z"/>
<path d="M7659 6041 c-23 -18 -24 -26 -24 -126 0 -105 0 -107 29 -132 23 -19
36 -24 60 -19 55 11 66 36 66 146 0 83 -3 101 -21 124 -25 32 -75 35 -110 7z"/>
<path d="M5645 5895 c-16 -15 -25 -36 -25 -55 0 -38 39 -80 73 -80 42 0 77 36
77 80 0 71 -76 104 -125 55z"/>
<path d="M5936 5899 c-20 -16 -26 -29 -26 -59 0 -30 6 -43 26 -59 23 -18 41
-21 120 -21 52 0 94 2 94 5 0 3 -22 35 -50 71 -27 36 -50 69 -50 75 0 18 -86
10 -114 -12z"/>
<path d="M3933 5623 c-9 -3 -13 -27 -13 -68 0 -54 3 -66 20 -75 40 -21 92 9
105 61 5 19 0 34 -20 57 -26 31 -58 39 -92 25z"/>
<path d="M4635 5605 c-23 -22 -25 -31 -25 -125 0 -94 2 -103 25 -125 18 -19
35 -25 70 -25 l45 0 0 -135 0 -135 -65 0 -65 0 0 45 c0 82 -68 121 -126 72
-23 -20 -27 -33 -31 -94 -7 -87 2 -138 28 -164 17 -17 33 -19 139 -19 l120 0
0 -140 0 -140 -49 0 c-42 0 -53 -4 -70 -26 -29 -36 -27 -75 5 -105 23 -21 36
-24 120 -27 l94 -4 0 516 0 516 -40 0 c-39 0 -40 1 -40 35 0 93 -77 138 -135
80z"/>
<path d="M5646 5609 c-22 -17 -26 -28 -26 -70 l0 -49 -37 0 c-49 0 -85 -19
-101 -53 -15 -32 -9 -60 21 -87 20 -19 36 -20 284 -20 l263 0 0 -44 c0 -63 28
-94 91 -102 l49 -7 0 -39 c0 -30 7 -46 29 -69 33 -32 65 -37 99 -13 21 14 22
22 22 150 l0 134 -64 0 -63 0 -5 51 c-7 67 -30 90 -97 97 l-51 5 0 48 c0 39
-4 51 -26 68 -25 19 -40 21 -194 21 -154 0 -169 -2 -194 -21z"/>
<path d="M2495 5478 c-39 -21 -45 -39 -45 -143 0 -93 2 -103 23 -123 30 -29
87 -29 112 -2 10 11 20 42 23 70 l5 50 44 0 c96 0 129 104 46 148 -27 15 -181
15 -208 0z"/>
<path d="M3324 5445 c-18 -27 -14 -58 10 -90 14 -18 15 -15 16 48 0 37 -2 67
-5 67 -2 0 -12 -11 -21 -25z"/>
<path d="M3191 5314 c-44 -56 -10 -124 61 -124 58 0 91 56 64 108 -26 51 -91
59 -125 16z"/>
<path d="M3920 5259 l0 -81 111 4 c107 3 112 4 135 31 29 34 30 66 3 101 -20
25 -23 26 -135 26 l-114 0 0 -81z"/>
<path d="M4345 5315 c-49 -49 -16 -125 55 -125 44 0 80 35 80 77 0 34 -42 73
-80 73 -19 0 -40 -9 -55 -25z"/>
<path d="M5410 5190 c0 -100 4 -150 11 -150 6 0 24 14 41 30 30 30 30 30 26
131 -3 92 -5 103 -27 120 -48 39 -51 31 -51 -131z"/>
<path d="M7511 5314 c-45 -57 -11 -119 70 -130 l49 -7 0 -104 c0 -140 17 -173
90 -173 19 0 36 9 49 26 19 25 21 40 21 194 0 154 -2 169 -21 194 -20 25 -24
26 -129 26 -105 0 -109 -1 -129 -26z"/>
<path d="M6911 5265 c1 -43 2 -46 10 -24 6 16 6 35 0 50 -8 20 -10 16 -10 -26z"/>
<path d="M2766 5179 c-22 -17 -26 -28 -26 -69 l0 -48 -119 -3 c-110 -4 -121
-6 -145 -28 -25 -23 -26 -30 -26 -123 0 -111 6 -130 49 -148 58 -24 111 25
111 103 l0 37 135 0 135 0 0 -46 c0 -37 5 -51 30 -76 30 -30 30 -30 131 -26
134 4 139 10 139 152 -1 67 -5 107 -14 118 -16 21 -58 38 -97 38 -26 0 -29 3
-29 35 0 46 -17 80 -47 94 -13 6 -64 11 -112 11 -74 0 -93 -3 -115 -21z"/>
<path d="M4205 5175 c-19 -18 -25 -35 -25 -68 l0 -44 -52 -6 c-65 -8 -92 -33
-92 -83 0 -50 31 -74 95 -74 l49 0 0 -271 0 -271 35 -72 c19 -40 35 -81 35
-90 0 -12 9 -16 35 -16 35 0 35 0 35 -46 0 -37 5 -51 29 -75 16 -16 39 -29 51
-29 12 0 35 13 51 29 l29 29 0 242 0 241 -25 24 c-18 19 -35 25 -70 25 l-45 0
0 65 0 65 41 0 c32 0 47 6 71 30 25 26 29 36 24 63 -8 44 -39 67 -91 67 l-43
0 -3 121 c-4 118 -5 121 -32 145 -36 31 -71 31 -102 -1z"/>
<path d="M5804 5188 c-27 -13 -44 -49 -44 -93 0 -32 -3 -35 -29 -35 -41 0 -90
-19 -101 -40 -33 -62 8 -120 83 -120 l47 0 0 -46 c0 -37 5 -51 29 -75 16 -16
39 -29 51 -29 12 0 35 13 51 29 24 24 29 38 29 75 l0 46 119 0 c140 0 165 11
165 74 0 50 -27 75 -92 83 l-52 6 0 44 c0 33 -6 50 -25 68 -22 23 -31 25 -117
24 -51 0 -103 -5 -114 -11z"/>
<path d="M7376 5179 c-25 -20 -26 -24 -26 -130 0 -96 2 -111 20 -129 28 -28
81 -26 108 3 20 21 22 34 22 129 0 103 -1 107 -26 127 -15 12 -37 21 -49 21
-12 0 -34 -9 -49 -21z"/>
<path d="M3326 5158 c-21 -30 -20 -51 4 -79 l19 -24 1 63 c0 34 -2 62 -4 62
-3 0 -12 -10 -20 -22z"/>
<path d="M7111 5048 c-47 -17 -50 -31 -51 -220 l0 -177 26 -20 c25 -19 40 -21
194 -21 154 0 169 2 194 21 19 15 26 30 26 54 0 51 -27 77 -88 83 l-52 5 0 44
c0 61 -32 93 -95 93 -43 0 -45 1 -45 30 0 77 -53 129 -109 108z"/>
<path d="M3321 4862 c-8 -20 -9 -36 -2 -54 19 -50 31 -42 31 21 0 66 -11 78
-29 33z"/>
<path d="M2643 4760 c-54 -23 -65 -88 -23 -130 17 -17 34 -20 119 -20 84 0
102 3 125 21 20 16 26 29 26 58 0 61 -25 76 -134 78 -50 2 -101 -2 -113 -7z"/>
<path d="M4515 4760 c-54 -21 -65 -89 -21 -127 34 -28 65 -29 100 -2 42 33 35
99 -15 124 -31 17 -36 17 -64 5z"/>
<path d="M5417 4763 c-10 -10 -8 -328 3 -411 5 -40 18 -92 29 -115 l18 -42 12
28 c7 17 11 98 11 208 l0 179 45 0 c35 0 52 6 70 25 40 39 32 96 -16 120 -28
15 -159 21 -172 8z"/>
<path d="M6095 4758 c-34 -19 -44 -41 -45 -90 l0 -48 -193 0 c-254 0 -237 16
-237 -221 0 -233 -15 -219 221 -219 171 0 176 1 197 23 16 17 22 36 22 70 l0
47 46 0 c62 0 104 40 104 98 0 39 0 39 45 45 80 8 85 20 85 174 l0 133 -112 0
c-66 0 -121 -5 -133 -12z"/>
<path d="M6911 4690 c0 -36 2 -41 10 -27 7 12 7 27 0 45 -9 25 -9 24 -10 -18z"/>
<path d="M2471 4594 c-21 -26 -21 -36 -21 -486 l0 -459 25 -24 c31 -32 66 -32
102 -1 l28 24 3 191 3 191 35 0 c90 0 136 79 79 135 -18 19 -35 25 -70 25
l-45 0 0 180 c0 225 -9 250 -90 250 -19 0 -36 -9 -49 -26z"/>
<path d="M3058 4606 c-64 -48 -17 -153 62 -137 30 6 60 44 60 76 0 59 -75 97
-122 61z"/>
<path d="M3923 4605 c-3 -9 -4 -17 -2 -18 120 -78 118 -77 124 -57 7 23 -18
75 -40 84 -31 11 -75 6 -82 -9z"/>
<path d="M6952 4613 c-21 -8 -43 -61 -36 -87 14 -58 85 -78 129 -36 31 29 32
68 4 104 -20 25 -61 34 -97 19z"/>
<path d="M3331 4596 c-16 -19 -11 -29 8 -17 7 5 12 14 9 21 -3 9 -8 7 -17 -4z"/>
<path d="M2923 4468 c-71 -34 -37 -148 43 -148 23 0 74 55 74 80 0 27 -52 80
-77 79 -10 0 -28 -5 -40 -11z"/>
<path d="M7085 4456 c-56 -56 -15 -136 70 -136 l45 0 0 -45 c0 -65 31 -95 100
-95 l50 0 0 -53 c0 -65 22 -91 77 -91 62 0 73 25 73 165 l0 119 120 0 c115 0
122 1 145 25 30 29 32 74 6 106 l-19 24 -321 3 -321 3 -25 -25z"/>
<path d="M6911 4400 c0 -40 2 -42 11 -22 8 16 8 28 0 45 -9 19 -11 17 -11 -23z"/>
<path d="M4673 4333 c-28 -5 -63 -49 -63 -78 0 -12 9 -34 21 -49 20 -25 23
-26 131 -26 l110 0 -5 33 c-3 17 -9 53 -13 80 l-6 47 -77 -1 c-42 -1 -86 -4
-98 -6z"/>
<path d="M6218 4313 c-26 -29 -30 -60 -14 -91 16 -30 34 -42 66 -42 24 0 67
107 52 130 -14 23 -85 25 -104 3z"/>
<path d="M2911 4173 c-11 -10 -24 -32 -27 -50 -5 -27 -1 -37 25 -63 20 -21 39
-30 53 -28 20 3 24 12 34 73 9 52 9 72 0 77 -20 13 -63 8 -85 -9z"/>
<path d="M5508 4176 c-24 -18 -23 -23 17 -72 108 -131 311 -194 477 -148 62
18 69 29 39 65 -19 24 -23 24 -215 27 l-196 3 0 45 c0 34 -6 51 -25 69 -27 28
-70 32 -97 11z"/>
<path d="M6075 4165 c-36 -35 -33 -76 7 -110 34 -29 69 -28 100 3 31 31 32 66
3 100 -34 40 -75 43 -110 7z"/>
<path d="M7086 4169 l-26 -20 0 -195 0 -194 -64 0 -63 0 -5 52 c-6 61 -32 88
-83 88 -46 0 -75 -38 -75 -96 l0 -44 -40 0 c-37 0 -46 -6 -102 -65 -33 -36
-90 -88 -127 -115 -70 -53 -210 -129 -275 -150 -36 -11 -38 -14 -32 -44 3 -17
17 -41 32 -53 23 -21 35 -23 140 -23 l114 0 0 -180 c0 -195 6 -222 51 -240 59
-25 109 17 109 93 l0 37 134 0 133 0 6 -47 c4 -35 12 -53 32 -70 26 -23 27
-23 356 -23 l329 0 0 -65 0 -65 -189 0 c-223 0 -230 -3 -239 -88 -5 -52 -5
-52 -39 -52 -40 0 -88 -22 -97 -45 -14 -37 -6 -74 20 -94 25 -19 40 -21 194
-21 154 0 169 2 194 21 22 17 26 28 26 70 l0 49 65 0 65 0 0 -35 c0 -93 77
-138 135 -80 l25 24 0 244 c0 286 0 286 -87 294 l-51 5 -5 51 c-5 58 -31 87
-79 87 -45 0 -78 -39 -78 -95 l0 -45 -65 0 -65 0 0 45 c0 35 -6 52 -25 70 -18
19 -35 25 -70 25 l-45 0 0 140 0 140 49 0 c42 0 53 4 70 26 12 15 21 37 21 49
0 12 -9 34 -21 49 -17 22 -28 26 -70 26 l-49 0 0 65 0 65 99 0 c143 0 181 18
181 88 0 44 -36 72 -93 72 l-47 0 0 46 c0 62 -40 104 -98 104 l-39 0 -6 47
c-9 81 -74 117 -131 72z m-26 -779 l0 -210 -210 0 -210 0 0 210 0 210 210 0
210 0 0 -210z"/>
<path d="M6795 3445 c-36 -35 -33 -76 7 -110 34 -29 69 -28 100 3 31 31 32 66
3 100 -34 40 -75 43 -110 7z"/>
<path d="M7655 4158 c-20 -23 -25 -38 -20 -57 14 -57 65 -82 114 -57 48 25 56
82 16 121 -35 36 -76 33 -110 -7z"/>
<path d="M2783 4040 c-12 -5 -26 -18 -32 -29 -12 -21 -15 -199 -5 -226 11 -27
62 -45 96 -33 41 15 48 35 48 151 0 86 -3 107 -17 120 -24 21 -63 28 -90 17z"/>
<path d="M4515 4041 c-38 -16 -48 -40 -53 -120 -6 -100 9 -148 51 -166 36 -15
82 -3 97 25 6 10 10 63 10 118 0 80 -3 104 -17 120 -21 25 -60 35 -88 23z"/>
<path d="M4906 4004 c-14 -36 -6 -73 20 -93 25 -20 54 -28 54 -16 0 9 -60 125
-64 125 -2 0 -7 -7 -10 -16z"/>
<path d="M4259 3844 c-7 -31 -27 -85 -45 -121 -26 -50 -31 -70 -23 -84 14 -27
42 -39 88 -39 l41 0 0 -134 0 -133 -52 -5 c-77 -8 -88 -26 -88 -150 0 -55 4
-108 10 -118 18 -34 65 -40 316 -40 l244 0 0 -41 c0 -31 6 -47 29 -70 l29 -29
159 0 c87 0 168 3 181 6 44 12 52 48 52 242 l0 179 52 5 c61 6 88 32 88 83 0
24 -7 39 -26 54 -23 18 -41 21 -140 21 l-114 0 0 65 0 65 83 0 83 0 -79 80
-79 80 -59 0 c-81 0 -109 -26 -109 -100 l0 -50 -53 0 c-65 0 -91 -22 -91 -77
0 -49 31 -73 95 -73 l49 0 0 -49 c0 -68 22 -92 88 -99 l52 -5 0 -63 0 -64 -65
0 -65 0 0 48 c0 74 -51 117 -107 90 -34 -16 -53 -52 -53 -100 l0 -38 -65 0
-65 0 0 44 c0 24 -3 52 -6 61 -9 23 -57 45 -99 45 l-35 0 0 180 c0 110 -4 188
-11 203 -13 30 -48 47 -93 47 -33 0 -34 1 -40 50 -6 47 -33 90 -55 90 -5 0
-15 -25 -22 -56z"/>
<path d="M4792 3893 c-21 -8 -43 -61 -36 -87 15 -61 90 -79 131 -32 30 35 29
71 -2 101 -23 24 -61 31 -93 18z"/>
<path d="M2923 3748 c-71 -34 -37 -148 43 -148 23 0 74 55 74 80 0 27 -52 80
-77 79 -10 0 -28 -5 -40 -11z"/>
<path d="M4653 3750 c-68 -28 -51 -132 24 -146 27 -5 37 -1 64 25 37 37 34 72
-7 109 -27 23 -45 26 -81 12z"/>
<path d="M4091 3552 l-53 -56 22 -18 c34 -27 84 -23 109 8 27 34 27 67 -1 98
l-23 24 -54 -56z"/>
<path d="M7511 3584 c-12 -15 -21 -37 -21 -49 0 -12 9 -34 21 -49 20 -25 24
-26 129 -26 105 0 109 1 129 26 28 35 27 75 -2 102 -21 20 -34 22 -129 22
-103 0 -107 -1 -127 -26z"/>
<path d="M2690 3461 c-87 -27 -172 -99 -211 -179 -23 -45 -24 -58 -27 -303 -3
-243 -2 -258 19 -314 16 -43 38 -76 79 -116 86 -87 135 -99 396 -99 208 0 282
9 344 40 56 28 119 96 148 158 l27 57 3 336 3 337 -48 16 c-26 9 -72 30 -102
46 l-54 30 -276 -1 c-152 0 -287 -4 -301 -8z m618 -434 c-3 -291 -3 -294 -27
-329 -13 -19 -40 -46 -59 -59 -35 -23 -41 -24 -256 -27 -214 -2 -222 -2 -261
20 -21 13 -53 43 -70 66 l-30 44 -3 192 c-4 222 3 261 56 318 60 63 82 67 385
68 l268 0 -3 -293z"/>
<path d="M2779 3141 l-39 -39 0 -141 0 -141 34 -38 34 -37 146 0 146 0 37 38
38 37 3 117 c4 136 -6 181 -49 217 -30 25 -35 26 -171 26 l-140 0 -39 -39z"/>
<path d="M4635 3445 c-27 -26 -32 -70 -12 -96 45 -59 124 -40 142 33 6 22 1
33 -23 58 -37 37 -74 39 -107 5z"/>
<path d="M7376 3449 c-25 -20 -26 -24 -26 -128 0 -99 2 -109 23 -129 29 -28
67 -28 101 -1 25 20 26 24 26 129 0 105 -1 109 -26 129 -15 12 -37 21 -49 21
-12 0 -34 -9 -49 -21z"/>
<path d="M3933 3433 c-59 -34 -57 -79 4 -112 67 -35 140 53 93 112 -26 33 -42
33 -97 0z"/>
<path d="M5480 3421 c-5 -11 -10 -36 -10 -55 0 -35 -1 -36 -36 -36 -90 0 -136
-79 -79 -135 18 -19 35 -25 68 -25 l44 0 5 -51 c6 -60 31 -90 77 -91 50 -2 81
34 81 94 l0 48 261 0 c147 0 268 4 278 10 31 16 45 64 29 96 -20 44 -51 54
-170 54 -98 0 -108 2 -108 18 0 17 -11 20 -92 25 -100 7 -206 26 -277 51 -55
20 -58 20 -71 -3z"/>
<path d="M3795 3320 c-33 -13 -45 -34 -52 -89 l-6 -51 -44 0 c-33 0 -50 -6
-68 -25 -25 -24 -25 -27 -25 -193 0 -156 2 -171 21 -196 16 -20 29 -26 59 -26
51 0 80 35 80 96 l0 44 45 0 c35 0 52 6 70 25 25 24 25 27 25 194 0 93 -3 177
-6 186 -6 15 -54 46 -71 44 -4 0 -17 -4 -28 -9z"/>
<path d="M7685 3320 c-27 -10 -42 -29 -50 -61 -5 -19 0 -34 20 -57 34 -40 75
-43 110 -7 40 40 30 96 -22 123 -25 14 -30 14 -58 2z"/>
<path d="M5937 3020 c-21 -17 -27 -30 -27 -60 0 -51 35 -80 96 -80 l44 0 0
-65 0 -65 -44 0 c-33 0 -52 -6 -73 -24 -27 -24 -28 -27 -28 -124 0 -92 2 -102
24 -126 30 -32 69 -34 105 -5 22 17 26 28 26 70 l0 49 46 0 c37 0 51 5 75 29
29 29 29 31 29 145 l0 116 45 0 c81 0 123 73 76 131 -19 23 -24 24 -193 27
-165 3 -175 2 -201 -18z"/>
<path d="M4341 2864 c-14 -18 -21 -41 -21 -70 l0 -44 -44 0 c-66 0 -96 -28
-96 -91 l0 -49 -111 0 c-110 0 -142 -7 -166 -39 -20 -26 -15 -70 12 -96 24
-25 27 -25 198 -25 168 0 174 1 195 23 13 13 25 43 28 70 l7 47 133 0 134 0 0
-45 c0 -71 53 -112 115 -89 30 12 45 60 45 144 0 137 -14 149 -172 150 l-118
0 0 44 c0 61 -29 96 -80 96 -30 0 -43 -6 -59 -26z"/>
<path d="M5351 2864 c-14 -18 -21 -41 -21 -70 l0 -44 -119 0 c-133 0 -156 -9
-167 -67 -5 -27 -1 -37 24 -63 24 -23 39 -30 70 -30 39 0 39 0 46 -47 11 -84
72 -118 130 -72 22 17 26 28 26 70 l0 49 140 0 140 0 0 -49 c0 -42 4 -53 26
-70 36 -29 75 -27 105 5 23 24 24 33 27 167 2 77 1 156 -3 174 -8 47 -37 73
-80 73 -50 0 -75 -31 -75 -92 l0 -48 -64 0 -63 0 -5 50 c-6 64 -29 90 -79 90
-29 0 -42 -6 -58 -26z"/>
<path d="M6362 2867 c-21 -22 -22 -32 -22 -199 l0 -177 26 -20 c23 -18 41 -21
126 -21 92 0 101 2 123 25 52 51 15 123 -68 132 l-47 6 0 97 c0 105 -12 155
-40 170 -32 17 -75 11 -98 -13z"/>
<path d="M6650 2870 c-12 -12 -20 -33 -20 -55 0 -63 24 -75 144 -75 123 0 150
13 150 73 0 66 -21 77 -146 77 -95 0 -110 -2 -128 -20z"/>
<path d="M3774 2727 c-55 -48 -22 -131 52 -131 69 0 99 80 49 129 -30 31 -66
32 -101 2z"/>
</g>
</svg>
