<?xml version="1.0" standalone="no"?>
<!DOCTYPE svg PUBLIC "-//W3C//DTD SVG 20010904//EN"
 "http://www.w3.org/TR/2001/REC-SVG-20010904/DTD/svg10.dtd">
<svg version="1.0" xmlns="http://www.w3.org/2000/svg"
 width="700.000000pt" height="700.000000pt" viewBox="0 0 700.000000 700.000000"
 preserveAspectRatio="xMidYMid meet">
<metadata>
Created by potrace 1.14, written by Peter Selinger 2001-2017
</metadata>
<g transform="translate(0.000000,700.000000) scale(0.100000,-0.100000)"
fill="#000000" stroke="none">
<path d="M4 4321 c-2 -2 -4 -121 -4 -263 l0 -258 33 -1 c17 0 189 -1 381 -2
l350 -2 0 -557 0 -558 50 -1 c58 0 528 0 566 1 l25 0 -1 560 -1 559 487 0 486
0 -1 -547 c0 -301 1 -552 3 -558 2 -9 92 -12 320 -12 l318 -1 -1 487 c0 268 1
492 3 499 2 7 15 -1 30 -20 15 -18 36 -41 47 -53 11 -11 40 -45 65 -74 25 -29
54 -63 65 -74 11 -12 49 -55 85 -96 36 -41 67 -77 70 -80 3 -3 36 -41 75 -85
38 -44 76 -87 85 -96 8 -9 26 -29 40 -45 22 -26 176 -202 265 -303 17 -18 35
-39 42 -46 9 -10 95 -13 370 -11 l358 1 2 535 c1 294 2 545 2 557 l1 22 490
-1 490 0 0 -559 0 -559 30 -1 c17 0 159 0 318 -1 l287 0 5 561 5 560 310 0
c171 0 340 0 378 1 l67 0 0 260 c0 143 -3 261 -7 261 -22 4 -6985 3 -6989 0z
m3972 -695 l1 -169 -40 44 c-21 24 -51 60 -65 79 -15 19 -32 41 -39 48 -7 7
-29 34 -50 60 -21 26 -40 49 -43 52 -3 3 -16 18 -30 33 l-24 28 144 -3 145 -3
1 -169z"/>
</g>
</svg>
