<?xml version="1.0" standalone="no"?>
<!DOCTYPE svg PUBLIC "-//W3C//DTD SVG 20010904//EN"
 "http://www.w3.org/TR/2001/REC-SVG-20010904/DTD/svg10.dtd">
<svg version="1.0" xmlns="http://www.w3.org/2000/svg"
 width="2000.000000pt" height="2000.000000pt" viewBox="0 0 2000.000000 2000.000000"
 preserveAspectRatio="xMidYMid meet">
<metadata>
Created by potrace 1.14, written by Peter Selinger 2001-2017
</metadata>
<g transform="translate(0.000000,2000.000000) scale(0.100000,-0.100000)"
fill="#000000" stroke="none">
<path d="M2702 11168 l3 -553 795 -3 795 -2 -3 -1165 -2 -1165 680 0 680 0 0
1165 0 1165 1010 0 1010 0 0 555 0 555 -2485 0 -2485 0 2 -552z"/>
<path d="M12330 11165 l0 -555 1020 0 1020 0 0 -1165 0 -1165 675 0 675 0 0
1165 0 1165 795 0 795 0 0 549 0 549 -31 6 c-17 3 -1138 6 -2490 6 l-2459 0 0
-555z"/>
</g>
</svg>
